<?xml version="1.0" encoding="UTF-8" standalone="no"?>
<svg
   id="a5c16198-98a1-478b-8909-43624583dcf2"
   data-name="Layer 1"
   width="793"
   height="551.73152"
   viewBox="0 0 793 551.73152"
   version="1.1"
   sodipodi:docname="log.svg"
   inkscape:version="1.2.1 (9c6d41e410, 2022-07-14)"
   xmlns:inkscape="http://www.inkscape.org/namespaces/inkscape"
   xmlns:sodipodi="http://sodipodi.sourceforge.net/DTD/sodipodi-0.dtd"
   xmlns="http://www.w3.org/2000/svg"
   xmlns:svg="http://www.w3.org/2000/svg">
  <defs
     id="defs122" />
  <sodipodi:namedview
     id="namedview120"
     pagecolor="#ffffff"
     bordercolor="#000000"
     borderopacity="0.25"
     inkscape:showpageshadow="2"
     inkscape:pageopacity="0.0"
     inkscape:pagecheckerboard="0"
     inkscape:deskcolor="#d1d1d1"
     showgrid="false"
     inkscape:zoom="0.42774429"
     inkscape:cx="4.6756907"
     inkscape:cy="275.86575"
     inkscape:window-width="1280"
     inkscape:window-height="961"
     inkscape:window-x="1912"
     inkscape:window-y="-8"
     inkscape:window-maximized="1"
     inkscape:current-layer="a5c16198-98a1-478b-8909-43624583dcf2" />
  <ellipse
     cx="158"
     cy="539.73152"
     rx="158"
     ry="12"
     fill="#e6e6e6"
     id="ellipse63" />
  <path
     d="M324.27227,296.55377c27.49676-11.6953,61.74442-4.28528,95.19092.85757.31124-6.228,4.08385-13.80782.132-18.15284-4.80115-5.2788-4.35917-10.82529-1.47008-16.40375,7.38788-14.265-3.1969-29.44375-13.88428-42.0647a23.66937,23.66937,0,0,0-19.75537-8.29179l-19.7975,1.41411A23.70939,23.70939,0,0,0,343.635,230.85851v0c-4.72724,6.42917-7.25736,12.84055-5.66438,19.21854-7.08065,4.83882-8.27029,10.67977-5.08851,17.2644,2.698,4.14592,2.66928,8.18161-.12275,12.1056a55.89079,55.89079,0,0,0-8.31011,16.5061Z"
     transform="translate(-203.5 -174.13424)"
     fill="#2f2e41"
     id="path65" />
  <path
     d="M977.70889,651.09727H417.29111A18.79111,18.79111,0,0,1,398.5,632.30616h0q304.727-35.41512,598,0h0A18.79111,18.79111,0,0,1,977.70889,651.09727Z"
     transform="translate(-203.5 -174.13424)"
     fill="#2f2e41"
     id="path67" />
  <path
     d="M996.5,633.41151l-598-1.10536,69.30611-116.61553.3316-.55268V258.13057a23.7522,23.7522,0,0,1,23.75418-23.75418H899.792a23.7522,23.7522,0,0,1,23.75418,23.75418V516.90649Z"
     transform="translate(-203.5 -174.13424)"
     fill="#3f3d56"
     id="path69" />
  <path
     d="M491.35028,250.95679a7.74623,7.74623,0,0,0-7.73753,7.73753V493.03073a7.74657,7.74657,0,0,0,7.73753,7.73752H903.64972a7.74691,7.74691,0,0,0,7.73753-7.73752V258.69432a7.74657,7.74657,0,0,0-7.73753-7.73753Z"
     transform="translate(-203.5 -174.13424)"
     fill="#fff"
     id="path71" />
  <path
     d="M493.07794,531.71835a3.32522,3.32522,0,0,0-3.01275,1.93006l-21.35537,46.42514a3.31594,3.31594,0,0,0,3.01221,4.7021H920.81411a3.3157,3.3157,0,0,0,2.96526-4.79925L900.5668,533.55126a3.29926,3.29926,0,0,0-2.96526-1.83291Z"
     transform="translate(-203.5 -174.13424)"
     fill="#2f2e41"
     id="path73" />
  <circle
     cx="492.34196"
     cy="67.97967"
     r="4.97412"
     fill="#fff"
     id="circle75" />
  <path
     d="M651.69986,593.61853a3.32114,3.32114,0,0,0-3.20165,2.4536l-5.35679,19.89649a3.31576,3.31576,0,0,0,3.20166,4.17856h101.874a3.31531,3.31531,0,0,0,3.13257-4.40093l-6.88691-19.89649a3.31784,3.31784,0,0,0-3.13366-2.23123Z"
     transform="translate(-203.5 -174.13424)"
     fill="#2f2e41"
     id="path77" />
  <polygon
     points="720.046 337.135 720.046 341.556 264.306 341.556 264.649 341.004 264.649 337.135 720.046 337.135"
     fill="#2f2e41"
     id="polygon79" />
  <circle
     cx="707.33457"
     cy="77.37523"
     r="77.37523"
     fill="#ffd0c4"
     id="circle81" />
  <path
     d="M942.89,285.223H878.77911a4.42582,4.42582,0,0,1-4.42144-4.42145V242.11391a4.42616,4.42616,0,0,1,4.42144-4.42144H942.89a4.42616,4.42616,0,0,1,4.42144,4.42144v38.68761A4.42582,4.42582,0,0,1,942.89,285.223Zm-64.11091-43.10906v38.68761h64.11415L942.89,242.11391Z"
     transform="translate(-203.5 -174.13424)"
     fill="#fff"
     id="path83" />
  <path
     d="M930.73105,242.11391h-39.793V224.42814c0-12.80987,8.36792-22.10721,19.89649-22.10721s19.89648,9.29734,19.89648,22.10721Zm-35.37153-4.42144h30.95009V224.42814c0-10.413-6.36338-17.68576-15.475-17.68576s-15.47505,7.27281-15.47505,17.68576Z"
     transform="translate(-203.5 -174.13424)"
     fill="#fff"
     id="path85" />
  <circle
     cx="707.33457"
     cy="86.21811"
     r="4.42144"
     fill="#fff"
     id="circle87" />
  <path
     d="M856.81994,421.28372H538.18006a5.90767,5.90767,0,0,1-5.90073-5.90073V336.342a5.90767,5.90767,0,0,1,5.90073-5.90072H856.81994a5.90767,5.90767,0,0,1,5.90073,5.90072V415.383A5.90767,5.90767,0,0,1,856.81994,421.28372Zm-318.63988-88.4821a3.5443,3.5443,0,0,0-3.54043,3.54043V415.383a3.54431,3.54431,0,0,0,3.54043,3.54044H856.81994a3.54431,3.54431,0,0,0,3.54043-3.54044V336.342a3.5443,3.5443,0,0,0-3.54043-3.54043Z"
     transform="translate(-203.5 -174.13424)"
     fill="#e6e6e6"
     id="path89" />
  <circle
     cx="384.19021"
     cy="198.69546"
     r="24.03645"
     fill="#e6e6e6"
     id="circle91" />
  <path
     d="M643.203,356.80541a4.00608,4.00608,0,1,0,0,8.01215H832.06074a4.00607,4.00607,0,0,0,0-8.01215Z"
     transform="translate(-203.5 -174.13424)"
     fill="#e6e6e6"
     id="path93" />
  <path
     d="M643.203,380.84186a4.00607,4.00607,0,1,0,0,8.01214H724.469a4.00607,4.00607,0,1,0,0-8.01214Z"
     transform="translate(-203.5 -174.13424)"
     fill="#e6e6e6"
     id="path95" />
  <path
     d="M467.022,382.46241,408.1189,413.778l-.74561-26.09629c19.22553-3.20948,37.51669-8.7974,54.42941-17.8946l6.1605-15.22008a10.31753,10.31753,0,0,1,17.53643-2.67788l0,0a10.31753,10.31753,0,0,1-.90847,14.06885Z"
     transform="translate(-203.5 -174.13424)"
     fill="#ffb8b8"
     id="path97" />
  <path
     d="M323.09819,563.26707v0a11.57378,11.57378,0,0,1,1.46928-9.36311l12.93931-19.85777a22.61221,22.61221,0,0,1,29.335-7.73927h0c-5.438,9.25647-4.67994,17.37679,1.87806,24.43365a117.63085,117.63085,0,0,0-27.93606,19.04492A11.57386,11.57386,0,0,1,323.09819,563.26707Z"
     transform="translate(-203.5 -174.13424)"
     fill="#2f2e41"
     id="path99" />
  <path
     d="M469.70475,537.30274l0,0a22.20314,22.20314,0,0,1-18.87085,10.77909l-85.96027.65122-3.728-21.62264,38.026-11.18413-32.06116-24.60507L402.154,450.31277l63.65,59.32431A22.20317,22.20317,0,0,1,469.70475,537.30274Z"
     transform="translate(-203.5 -174.13424)"
     fill="#2f2e41"
     id="path101" />
  <path
     d="M351.45266,685.17939H331.32124c-18.07509-123.89772-36.47383-248.14186,17.8946-294.51529l64.12231,10.43852L405.13646,455.532l-35.7892,41.00845Z"
     transform="translate(-203.5 -174.13424)"
     fill="#2f2e41"
     id="path103" />
  <path
     d="M369.14917,713.24594h0a11.57381,11.57381,0,0,1-9.3632-1.46873l-21.85854-2.93814a22.61221,22.61221,0,0,1-7.741-29.33451v0c9.2568,5.43749,17.37707,4.67891,24.43354-1.8795,4.98593,10.06738,13.20093,9.45331,21.04657,17.93494A11.57385,11.57385,0,0,1,369.14917,713.24594Z"
     transform="translate(-203.5 -174.13424)"
     fill="#2f2e41"
     id="path105" />
  <path
     d="M399.1716,307.90158l-37.28042-8.94731c6.19168-12.6739,6.70155-26.77618,3.728-41.75406l25.35068-.74561C391.76421,275.08,394.16732,292.48081,399.1716,307.90158Z"
     transform="translate(-203.5 -174.13424)"
     fill="#ffb8b8"
     id="path107" />
  <path
     d="M409.41752,423.55243c-27.13873,18.49308-46.31418.63272-60.94729-26.92346,2.03338-16.86188-1.259-37.04061-7.35672-58.96635a40.13762,40.13762,0,0,1,24.50567-48.40124h0l32.06116,13.421c27.22362,22.19038,32.582,46.227,22.36825,71.5784Z"
     transform="translate(-203.5 -174.13424)"
     fill="#ffd0c4"
     id="path109" />
  <path
     d="M331.32124,326.54178,301.4969,342.19956l52.9382,31.31555,7.366,18.16951a9.63673,9.63673,0,0,1-5.78925,12.73088h0a9.63673,9.63673,0,0,1-12.76159-8.54442l-.74489-12.66307-67.2838-22.20366a15.73306,15.73306,0,0,1-9.87265-9.61147v0a15.733,15.733,0,0,1,5.90262-18.30258l54.10485-37.11845Z"
     transform="translate(-203.5 -174.13424)"
     fill="#ffb8b8"
     id="path111" />
  <path
     d="M361.14557,329.52422c-12.43861-5.4511-23.74934.47044-38.026,5.21926l-2.23683-39.51725c14.17612-7.55568,27.69209-9.59281,40.26285-3.728Z"
     transform="translate(-203.5 -174.13424)"
     fill="#ffd0c4"
     id="path113" />
  <circle
     cx="172.52496"
     cy="78.09251"
     r="23.80211"
     fill="#ffb8b8"
     id="circle115" />
  <path
     d="M404.5,249.22353c-23.56616,2.30811-41.52338-1.54606-53-12.52007v-8.8377h51Z"
     transform="translate(-203.5 -174.13424)"
     fill="#2f2e41"
     id="path117" />
  <path
     style="fill:#00ff00;stroke-width:2.33785"
     d="m 163.59694,245.17602 c -9.73846,-8.97661 -13.39592,-16.06717 -8.28777,-16.06717 6.89706,0 1.90076,-25.47009 -6.19316,-31.57147 -1.71343,-1.29162 -5.29343,-11.58812 -7.95556,-22.88111 -5.1598,-21.88833 -4.5096,-21.2811 -17.55135,-16.39119 -4.16009,1.5598 -6.93116,-34.37208 -2.8537,-37.00325 6.5163,-4.20494 21.33457,-6.93164 28.47787,-5.24018 4.0713,0.96403 8.82179,1.48422 10.55663,1.15596 4.35118,-0.82332 33.26909,10.93182 38.61461,15.69684 8.12578,7.24336 17.59748,23.04083 20.33649,33.91844 2.3217,9.2203 2.02158,13.69216 -2.02294,30.14216 -2.612,10.62361 -5.98163,25.10181 -7.48805,32.1738 -1.50642,7.07198 -3.19333,14.53954 -3.74868,16.59459 -1.3924,5.15245 -11.01895,9.1217 -22.12271,9.1217 -7.64094,0 -11.15513,-1.71589 -19.76168,-9.64912 z"
     id="path297" />
  <path
     style="fill:#00ff00;stroke-width:2.33785"
     d="M 690.21253,151.87224 C 642.5404,140.00105 618.02462,87.40725 639.49206,43.061431 c 6.85943,-14.1697 27.48669,-32.399638 42.18395,-37.2812806 50.5972,-16.8056924 100.89842,18.6551516 101.23659,71.3687466 0.13726,21.39485 -6.96059,38.787103 -21.94393,53.770443 -17.49652,17.49652 -48.16529,26.57841 -70.75614,20.9529 z m 53.2223,-64.203039 V 64.290748 l -7.598,-0.732583 c -7.1789,-0.692175 -7.598,-1.246633 -7.598,-10.05194 0,-10.557275 -4.99469,-21.839287 -10.62504,-23.999855 -16.06616,-6.165165 -29.10949,3.00198 -30.90835,21.72309 -1.06152,11.047379 -1.48985,11.674807 -8.43108,12.349979 l -7.31274,0.711309 -0.68131,20.855584 c -0.37471,11.47057 -0.13417,22.281408 0.53456,24.024078 0.965,2.51474 8.58219,3.03528 36.91791,2.52287 l 35.70205,-0.64563 z"
     id="path299" />
  <path
     style="fill:#00ff00;stroke-width:2.33785"
     d="m 676.80623,87.669201 v -17.53384 h 30.39199 30.39199 v 17.53384 17.533839 h -30.39199 -30.39199 z m 35.06768,-1.168922 c 0,-3.117128 -1.55856,-4.675691 -4.67569,-4.675691 -3.11712,0 -4.67569,1.558563 -4.67569,4.675691 0,3.117127 1.55857,4.67569 4.67569,4.67569 3.11713,0 4.67569,-1.558563 4.67569,-4.67569 z"
     id="path301" />
  <path
     style="fill:#8cff8c;stroke-width:2.33785;fill-opacity:1"
     d="m 693.62752,52.252303 c 0.56006,-8.543388 2.02593,-11.846451 6.84968,-15.434494 5.23898,-3.896895 6.94967,-4.136707 11.68923,-1.638642 7.70453,4.060805 8.982,6.610189 9.02307,18.006815 l 0.0358,9.935843 h -14.15517 -14.15517 z"
     id="path303" />
  <path
     style="fill:#8cff8c;fill-opacity:1;stroke-width:2.33785"
     d="m 682.87784,148.42904 c -31.37687,-11.9855 -53.88445,-48.57342 -49.41362,-80.325898 3.46356,-24.598676 21.94765,-48.686918 45.67986,-59.5294153 15.23984,-6.9626025 41.62435,-6.8076947 57.27721,0.3362838 15.28908,6.9779475 32.29812,23.9062195 38.98612,38.8009945 7.49305,16.687697 7.39153,44.636028 -0.21932,60.381165 -7.20901,14.91383 -22.02551,29.31895 -37.46999,36.42968 -15.82048,7.28383 -41.25632,9.09605 -54.84025,3.90719 z m 61.72591,-60.604554 v -24.39209 l -6.42908,-0.739748 c -5.40222,-0.621593 -6.75252,-2.233344 -8.45419,-10.091127 -3.78703,-17.48731 -6.33894,-21.906855 -14.13498,-24.47978 -14.43865,-4.765184 -29.42789,5.936673 -29.42789,21.010609 0,8.161801 -4.41676,13.989475 -10.60255,13.989475 -5.75872,0 -5.76236,0.01551 -5.76236,24.547376 v 24.547379 h 37.40552 37.40553 z"
     id="path2052" />
  <path
     style="fill:#8cff8c;fill-opacity:1;stroke-width:2.33785"
     d="m 676.80623,87.669201 v -17.53384 h 30.39199 30.39199 v 17.53384 17.533839 h -30.39199 -30.39199 z m 35.06768,-1.168922 c 0,-3.117128 -1.55856,-4.675691 -4.67569,-4.675691 -3.11712,0 -4.67569,1.558563 -4.67569,4.675691 0,3.117127 1.55857,4.67569 4.67569,4.67569 3.11713,0 4.67569,-1.558563 4.67569,-4.67569 z"
     id="path2054" />
  <path
     style="fill:#8cff8c;fill-opacity:1;stroke-width:2.33785"
     d="m 164.20956,243.36567 c -9.25987,-8.63751 -9.60951,-9.43807 -6.58785,-15.08409 2.6333,-4.92036 2.67291,-7.81297 0.22662,-16.55025 -1.63042,-5.82328 -4.3575,-11.74396 -6.06018,-13.15706 -3.15453,-2.61802 -4.7222,-6.86318 -11.48394,-31.0977 -3.67996,-13.18923 -4.07433,-13.65642 -10.45121,-12.38105 -7.81753,1.56351 -9.37164,-1.92732 -9.42204,-21.16376 l -0.0319,-12.18358 9.80612,-2.64051 c 18.23532,-4.91027 52.38169,3.08827 67.50311,15.8121 8.81796,7.41983 20.88027,30.82036 20.88027,40.50711 0,12.94242 -14.4737,71.02005 -18.45473,74.05203 -2.06514,1.57283 -8.79268,2.89315 -14.95009,2.93404 -9.83372,0.0653 -12.3846,-1.03502 -20.97416,-9.04728 z"
     id="path2056" />
</svg>
